<svg id="图层_1" data-name="图层 1" xmlns="http://www.w3.org/2000/svg" viewBox="0 0 104.67 105.4"><defs><style>.cls-1,.cls-2{fill:#00a29a;}.cls-2{fill-rule:evenodd;}</style></defs><path class="cls-1" d="M72.19,35.49a1,1,0,0,1-.62-.64c-1.72-5.73-6.08-8-13-8.65a1.14,1.14,0,0,1-.66-.29,5.89,5.89,0,0,0-3.6-1.25.37.37,0,0,1-.35-.33l-.3-2.19a.38.38,0,0,1,.24-.41A2.49,2.49,0,0,0,53.08,17H53a2.48,2.48,0,0,0-.84,4.78.38.38,0,0,1,.23.41l-.3,2.19a.37.37,0,0,1-.35.33,5.89,5.89,0,0,0-3.6,1.25,1.14,1.14,0,0,1-.65.29c-6.89.67-11.26,2.92-13,8.65a1,1,0,0,1-.63.64c-2,.68-2.92,2.27-2.92,6s.92,5.34,2.92,6a1,1,0,0,1,.63.65C36.28,54,40.8,56.23,48,56.85h-.08a.57.57,0,0,1,.22.07c1.64.17,3.28.24,4.91.28h.07c1.64,0,3.27-.11,4.91-.28a.62.62,0,0,1,.23-.07h-.08c7.16-.62,11.67-2.84,13.43-8.69a1,1,0,0,1,.62-.65c2-.67,2.92-2.26,2.92-6S74.19,36.17,72.19,35.49ZM66.83,47.6a5.62,5.62,0,0,1-2,2.66c-2,1.44-5.79,2.12-11.75,2.12s-9.7-.68-11.76-2.12a5.6,5.6,0,0,1-2-2.66,16.86,16.86,0,0,1-.91-6.1,16.9,16.9,0,0,1,.91-6.1,5.62,5.62,0,0,1,2-2.65c2.06-1.44,5.8-2.12,11.76-2.12s9.7.68,11.75,2.12a5.64,5.64,0,0,1,2,2.65,16.92,16.92,0,0,1,.9,6.1A16.89,16.89,0,0,1,66.83,47.6Z"/><path class="cls-1" d="M59.45,38.62c1.56,0,1.9,1.42,1.9,2.88s-.34,2.89-1.9,2.89S57.56,43,57.56,41.5s.33-2.88,1.89-2.88"/><path class="cls-1" d="M46.48,38.62c1.56,0,1.89,1.42,1.89,2.88s-.33,2.89-1.89,2.89-1.9-1.43-1.9-2.89.34-2.88,1.9-2.88"/><path class="cls-1" d="M56.39,58.86a1.28,1.28,0,0,0-.79-.25l-8.26,0c0-.53,0-1.09,0-1.68a.72.72,0,0,0-.47-.67,1.36,1.36,0,0,0-1,0,.75.75,0,0,0-.54.63c-.23,4.66.57,7.55,2,9.55a13.12,13.12,0,0,0,5.25,3.93,14,14,0,0,1,3.66,2.28l-5.24,0a1.16,1.16,0,0,0-.9.37.56.56,0,0,0,0,.75,1.12,1.12,0,0,0,.9.36l6.38,0a9.87,9.87,0,0,1,1.14,4.21l-8.38,0c-.56,0-1,.34-1,.74s.46.74,1,.74l8.42,0c0,.65,0,1.36-.11,2.12a.71.71,0,0,0,.45.67,1.38,1.38,0,0,0,1,0,.78.78,0,0,0,.57-.61,25.66,25.66,0,0,0,.1-2.69h0c0-.11,0-.23,0-.34a10.68,10.68,0,0,0-1.73-6.07,12.7,12.7,0,0,0-5.14-3.77,11.48,11.48,0,0,1-4.49-3.25l5.77,0a1.29,1.29,0,0,0,.74-.22.63.63,0,0,0,.29-.53c0-.41-.48-.73-1-.72l-6.62,0a12.77,12.77,0,0,1-1-4.32l8.21,0a1.29,1.29,0,0,0,.74-.22.61.61,0,0,0,0-1Z"/><path class="cls-2" d="M59.41,56.13a1.23,1.23,0,0,0-.77.22.64.64,0,0,0-.29.57,22,22,0,0,1-.11,4.55l-8.22,0a1.09,1.09,0,0,0-.9.37.56.56,0,0,0,0,.74A1.15,1.15,0,0,0,50,63L58,63a8.56,8.56,0,0,1-1.23,2.8,9,9,0,0,1-3.38,2.82l1.74.89a10.45,10.45,0,0,0,3.46-3c1.22-1.76,2-4.21,1.91-7.91,0-.53,0-1.08-.07-1.66a.62.62,0,0,0-.25-.47,1.25,1.25,0,0,0-.72-.25ZM50.83,69.88A10.28,10.28,0,0,0,47.11,73c-1.32,1.91-2,4.66-1.49,9.11,0,.4.53.7,1.09.67s1-.38.94-.78a18.89,18.89,0,0,1,0-5l8.06,0a1.26,1.26,0,0,0,.73-.22.64.64,0,0,0,.3-.53c0-.41-.48-.73-1-.72l-7.71,0a7.15,7.15,0,0,1,.91-1.88,9.27,9.27,0,0,1,3.62-2.85c-.59-.29-1.17-.59-1.73-.91Z"/><path class="cls-1" d="M79.24,94H28a19.06,19.06,0,0,1-19-19V23.75a19.06,19.06,0,0,1,19-19H79.24a19.06,19.06,0,0,1,19,19V75A19.06,19.06,0,0,1,79.24,94ZM28,16.11a7.64,7.64,0,0,0-7.64,7.64V75A7.65,7.65,0,0,0,28,82.65H79.24A7.65,7.65,0,0,0,86.88,75V23.75a7.65,7.65,0,0,0-7.64-7.64Z"/></svg>